<svg width="120" height="120" viewBox="0 0 120 120" fill="none" xmlns="http://www.w3.org/2000/svg">
<rect width="120" height="120" fill="#1976D2"/>
<path d="M31.656 84.648C26.568 84.648 22.104 83.592 18.264 81.48C14.472 79.368 11.52 76.344 9.408 72.408C7.344 68.472 6.312 63.864 6.312 58.584C6.312 53.352 7.344 48.768 9.408 44.832C11.52 40.896 14.472 37.872 18.264 35.76C22.104 33.648 26.568 32.592 31.656 32.592C37.752 32.592 43.104 34.2 47.712 37.416C48.528 37.992 49.104 38.616 49.44 39.288C49.824 39.96 50.016 40.824 50.016 41.88C50.016 43.368 49.584 44.64 48.72 45.696C47.904 46.704 46.896 47.208 45.696 47.208C44.976 47.208 44.328 47.112 43.752 46.92C43.176 46.68 42.504 46.32 41.736 45.84C40.056 44.832 38.472 44.112 36.984 43.68C35.496 43.248 33.96 43.032 32.376 43.032C28.104 43.032 24.912 44.328 22.8 46.92C20.736 49.464 19.704 53.352 19.704 58.584C19.704 63.864 20.736 67.8 22.8 70.392C24.912 72.936 28.104 74.208 32.376 74.208C33.816 74.208 35.208 73.992 36.552 73.56C37.896 73.08 39.624 72.36 41.736 71.4C42.744 70.872 43.488 70.512 43.968 70.32C44.448 70.128 45.024 70.032 45.696 70.032C46.896 70.032 47.904 70.56 48.72 71.616C49.584 72.624 50.016 73.872 50.016 75.36C50.016 76.368 49.824 77.232 49.44 77.952C49.104 78.624 48.528 79.248 47.712 79.824C43.104 83.04 37.752 84.648 31.656 84.648Z" fill="white"/>
<path d="M105.664 57.648C108.64 58.56 110.92 60.096 112.504 62.256C114.088 64.368 114.88 66.984 114.88 70.104C114.88 72.888 114.136 75.336 112.648 77.448C111.208 79.512 109.12 81.12 106.384 82.272C103.696 83.424 100.528 84 96.88 84H77.728C75.76 84 74.248 83.472 73.192 82.416C72.136 81.36 71.608 79.848 71.608 77.88V39.36C71.608 37.392 72.136 35.88 73.192 34.824C74.248 33.768 75.76 33.24 77.728 33.24H96.16C101.488 33.24 105.712 34.44 108.832 36.84C112 39.192 113.584 42.384 113.584 46.416C113.584 49.008 112.888 51.312 111.496 53.328C110.104 55.296 108.16 56.736 105.664 57.648ZM84.496 53.184H93.928C96.424 53.184 98.248 52.8 99.4 52.032C100.552 51.264 101.128 50.04 101.128 48.36C101.128 46.584 100.552 45.288 99.4 44.472C98.248 43.656 96.424 43.248 93.928 43.248H84.496V53.184ZM95.224 73.992C97.864 73.992 99.736 73.584 100.84 72.768C101.992 71.904 102.568 70.512 102.568 68.592C102.568 66.672 101.992 65.304 100.84 64.488C99.736 63.624 97.864 63.192 95.224 63.192H84.496V73.992H95.224Z" fill="white"/>
<path d="M62.688 84.648C58.848 84.648 55.272 84.24 51.96 83.424C48.696 82.56 46.008 81.384 43.896 79.896C43.08 79.272 42.48 78.624 42.096 77.952C41.76 77.28 41.592 76.416 41.592 75.36C41.592 73.92 42.024 72.672 42.888 71.616C43.752 70.56 44.76 70.032 45.912 70.032C46.536 70.032 47.136 70.128 47.712 70.32C48.288 70.512 49.008 70.872 49.872 71.4C51.84 72.504 53.784 73.296 55.704 73.776C57.672 74.256 59.88 74.496 62.328 74.496C65.16 74.496 67.296 74.088 68.736 73.272C70.224 72.408 70.968 71.16 70.968 69.528C70.968 68.424 70.272 67.488 68.88 66.72C67.536 65.904 64.944 65.112 61.104 64.344C56.352 63.336 52.632 62.136 49.944 60.744C47.256 59.352 45.36 57.72 44.256 55.848C43.2 53.928 42.672 51.624 42.672 48.936C42.672 45.864 43.584 43.08 45.408 40.584C47.232 38.088 49.728 36.144 52.896 34.752C56.112 33.312 59.712 32.592 63.696 32.592C67.2 32.592 70.32 32.976 73.056 33.744C75.792 34.512 78.288 35.712 80.544 37.344C81.408 37.968 82.008 38.64 82.344 39.36C82.728 40.032 82.92 40.872 82.92 41.88C82.92 43.32 82.488 44.568 81.624 45.624C80.808 46.68 79.824 47.208 78.672 47.208C78.048 47.208 77.472 47.136 76.944 46.992C76.416 46.8 75.672 46.416 74.712 45.84C74.472 45.696 73.776 45.336 72.624 44.76C71.52 44.136 70.2 43.656 68.664 43.32C67.176 42.936 65.544 42.744 63.768 42.744C61.32 42.744 59.352 43.224 57.864 44.184C56.376 45.096 55.632 46.32 55.632 47.856C55.632 48.768 55.896 49.512 56.424 50.088C56.952 50.664 57.936 51.24 59.376 51.816C60.816 52.344 62.952 52.896 65.784 53.472C70.392 54.48 74.016 55.704 76.656 57.144C79.296 58.536 81.168 60.168 82.272 62.04C83.376 63.912 83.928 66.12 83.928 68.664C83.928 71.832 83.04 74.64 81.264 77.088C79.488 79.488 76.992 81.36 73.776 82.704C70.608 84 66.912 84.648 62.688 84.648Z" fill="white"/>
</svg>
